<svg t="1640770223218" class="icon" viewBox="0 0 1024 1024" version="1.1" xmlns="http://www.w3.org/2000/svg" p-id="7009" width="200" height="200"><path d="M509.824 620.373333c-147.2 0-271.36 24.064-271.36 116.906667S363.392 853.333333 509.781333 853.333333c147.2 0 271.402667-24.064 271.402667-116.906666s-125.013333-116.053333-271.402667-116.053334z" fill="#2c2c2c" p-id="7010"></path><path d="M509.824 531.925333a179.498667 179.498667 0 0 0 179.626667-180.608A179.456 179.456 0 0 0 509.781333 170.666667a179.456 179.456 0 0 0-179.626666 180.650666 179.498667 179.498667 0 0 0 179.626666 180.608zM899.754667 393.386667c25.770667-101.461333-49.834667-192.554667-146.090667-192.554667-10.453333 0-20.48 1.152-30.293333 3.114667-1.28 0.298667-2.730667 0.938667-3.498667 2.090666-0.853333 1.450667-0.213333 3.413333 0.725333 4.693334a247.765333 247.765333 0 0 1 45.568 143.786666 245.845333 245.845333 0 0 1-41.984 138.325334 6.741333 6.741333 0 0 0 4.522667 10.410666c6.741333 1.194667 13.610667 1.792 20.650667 2.005334 70.101333 1.834667 132.992-43.52 150.4-111.914667z" fill="#2c2c2c" opacity=".4" p-id="7011"></path><path d="M973.226667 632.192c-12.885333-27.52-43.861333-46.378667-90.965334-55.637333-22.186667-5.461333-82.389333-13.141333-138.368-12.117334-0.853333 0.128-1.28 0.725333-1.365333 1.109334-0.128 0.512 0.128 1.450667 1.237333 2.005333 25.856 12.885333 125.824 68.864 113.237334 186.922667-0.512 5.12 3.584 9.557333 8.661333 8.789333 24.576-3.541333 87.893333-17.237333 107.52-59.818667a82.048 82.048 0 0 0 0-71.253333z" fill="#2c2c2c" p-id="7012"></path><path d="M300.586667 203.946667a149.930667 149.930667 0 0 0-30.293334-3.114667c-96.256 0-171.861333 91.093333-146.005333 192.554667 17.322667 68.352 80.213333 113.706667 150.357333 111.872 7.04-0.213333 13.952-0.853333 20.608-2.005334a6.741333 6.741333 0 0 0 4.565334-10.410666 245.930667 245.930667 0 0 1-41.984-138.282667c0-53.333333 16.64-103.04 45.568-143.786667 0.938667-1.28 1.621333-3.242667 0.682666-4.693333-0.768-1.237333-2.133333-1.834667-3.498666-2.133333z" fill="#2c2c2c" opacity=".4" p-id="7013"></path><path d="M141.738667 576.554667c-47.104 9.258667-78.08 28.117333-90.88 55.637333a81.834667 81.834667 0 0 0 0 71.253333c19.626667 42.581333 82.901333 56.32 107.52 59.818667 5.077333 0.768 9.130667-3.626667 8.576-8.789333-12.544-118.016 87.466667-174.037333 113.322666-186.88 1.066667-0.64 1.28-1.493333 1.194667-2.090667-0.085333-0.384-0.512-0.938667-1.322667-1.024-56.021333-1.066667-116.138667 6.613333-138.410666 12.074667z" fill="#2c2c2c" p-id="7014"></path></svg>