<?xml version="1.0" standalone="no"?><!DOCTYPE svg PUBLIC "-//W3C//DTD SVG 1.1//EN" "http://www.w3.org/Graphics/SVG/1.1/DTD/svg11.dtd"><svg t="1642147102220" class="icon" viewBox="0 0 1024 1024" version="1.1" xmlns="http://www.w3.org/2000/svg" p-id="980" xmlns:xlink="http://www.w3.org/1999/xlink" width="200" height="200"><defs><style type="text/css"></style></defs><path d="M510.2 569.9c26.2-32.3 50.5-64.1 76.9-93.9 9.7-10.9 23.6-20.6 37.4-24.9 47.2-14.6 95.2-26.6 142.9-39.6 29.7-8.1 30.1-9 24.9-44.5-47.6 12.9-95 25.8-142.8 38.7-3.1-44.7 1.4-51.6 40.7-62.9 29.4-8.5 58.5-18.6 88.4-24.7 24.9-5.1 31.8-18.9 28.4-44.9-47.5 12.8-94.5 25.5-145.3 39.3 5.7-28.7 10.2-54.6 16.3-80.1 1-4.4 8.4-8.5 13.7-10.3 17.1-5.8 34.2-12.5 51.9-15.3 51.2-8.1 88-35.6 117.3-77.5 21.3-30.5 47.4-57.7 75.5-84.2-7 44-13.9 87.9-21.1 131.9-11.9 72.8-23.9 145.6-36.3 218.4-1.5 9-4.1 18.6-8.8 26.3-117.1 190.8-234.5 381.4-352 572-2 3.2-4.5 6-8.8 11.6-7.2-11.7-13.1-21.4-19.1-31.1C378.2 792.4 265.2 611 155.1 427.9c-15.3-25.4-17.5-59.4-22.8-90-17.1-98.2-32.8-196.6-45.6-297.2 15.9 19.2 33.9 37 47.3 57.7 42.8 65.8 100.2 108.3 179.1 118.6 23.6 3.1 32.9 15.7 34.6 38.6 1.3 17.7 6.6 35.1 11 56.7-49.8-13.4-96.2-26-143.5-38.7-6 24.6-0.1 38.3 25 43.8 29.1 6.4 57.3 16.2 86 24.4 43.6 12.5 43.6 12.4 47 64.3-49-13.2-96.9-26.2-144.8-39.1-6.9 31.3-4.2 36.3 23.6 44 48.4 13.3 97.2 25.6 145.2 40.4 13.1 4 26.3 13.3 35.5 23.7 26.4 30.1 50.7 61.8 77.5 94.8z m58.4 59.5c72-42.9 152.9-74.2 196.1-155.4-44.8 13-88.3 25.3-131.6 38.5-5.1 1.6-10.6 6.8-13.1 11.7-17.5 34.8-34.3 70.1-51.4 105.2z m-114.1 5.3c-20.5-42-38.2-78.3-56.1-114.5-1.3-2.6-3.8-5.7-6.3-6.5-44.9-13.3-89.9-26.2-138.8-40.4 47.3 68.4 88.6 101.5 201.2 161.4z" p-id="981" fill="currentColor"></path><path d="M667.2 66.9c-15 78.5-30.1 156.9-45.1 235.4-1 5.4-2.7 10.8-2.8 16.2-1.6 85.1-54.4 141.7-110.9 199.3-29.2-34.9-58.5-69.5-87.1-104.5-3.6-4.4-4.3-11.5-5.5-17.5-21.4-110-42.6-220-60.6-332.4 18.9 23.1 37.8 46.1 56.8 69.2 2 2.4 4.3 4.7 5.8 7.4 26 49.1 67.2 65.9 120.3 55.6 10.3-2 22.5-6.7 29-14.3 32.7-37.9 63.8-77.2 95.4-116 1.6 0.5 3.2 1.1 4.7 1.6zM475.5 261.3c11.3 38.4 21.7 73.7 34 115.4 12.6-42.1 23.3-77.7 34.6-115.4h-68.6zM578 957.6C673.8 801.1 769.6 644.5 865.4 488c1.2 0.5 2.3 1 3.5 1.5-14.6 93.6-29.3 187.3-43.9 280.9-4 25.6-7.2 51.4-12.5 76.7-1.7 7.9-7.5 18.3-14.2 21.3-71.8 31.6-144.1 61.9-216.3 92.5-1.4-1.1-2.7-2.2-4-3.3zM153.8 485.9c98 160.2 192.9 315.3 290.3 474.5-9.1-2.5-14.1-3.3-18.5-5.2-66.5-28.1-133.2-56.1-199.4-85.1-7.2-3.1-15.9-11.4-17-18.5-19.3-117-37.6-234.1-56-351.2-0.4-2.6 0.2-5.5 0.6-14.5z" p-id="982" fill="currentColor"></path></svg>