<svg t="1640843243501" class="icon" viewBox="0 0 1024 1024" version="1.1" xmlns="http://www.w3.org/2000/svg" p-id="3187" width="200" height="200"><path d="M770.9 119.2c-4.6 41.7-15 69.3-48.9 89.7-71.8 43.1-140.2 91.7-209.5 138.9-14.2 9.7-24.2 12.1-39.9 1.3-76.7-52.7-154.5-103.9-231.9-155.8-12.7-8.5-33.6-61.3-28.3-74.6 2.1-5.2 8.9-9.8 14.6-12.2 176.7-74.3 353.6-74.6 530.1 0.5 6.9 2.9 11.8 10.4 13.8 12.2z m-427.7 38.3c50.4 33.9 95 64.2 140.1 93.8 3.9 2.6 12.2 3.2 15.8 0.8 45.5-29.9 90.6-60.5 141.2-94.6H343.2zM636.2 961.4c-16.2-41.9-31.5-79.3-45-117.3-4.8-13.6-11.6-17.9-25.7-17.7-48.3 0.8-96.6 0.8-144.9-0.1-14.2-0.3-21.1 4.4-25.9 17.7-13.4 37.4-28.1 74.2-43.4 114.3-25.4-20.6-50.9-34.2-49.1-75.2 3.9-87.1 1.6-174.5 0.8-261.7-0.1-15.6 4-24.7 18.5-31.4 25.2-11.6 49.5-25.1 78.6-40.1v221.7h182.4v-224c35.4 19 66.4 35 96.5 52.5 3.7 2.2 3.9 12.3 3.9 18.8 0.3 93.2-0.3 186.4 0.5 279.6 0.4 33.3-30.7 39-47.2 62.9z" p-id="3188" fill="currentColor"></path><path d="M955.6 98.4c-11.5 61.9-27.3 120.3-32.2 179.6-6.1 74.8-42.8 120.2-103.3 163-58.9 41.7-122.1 49.1-187.1 60.3-15.6 2.7-31.4 4.3-50.9 6.8 7.9-49.2 17.5-95.3 22-141.9 3.5-36.2 18.5-59.7 50.3-77.5 36.1-20.2 68.5-46.7 104.2-67.8 22.5-13.3 33-30.7 37.8-55.6 11-56.7 11.9-56.5 68.9-60.1 14.3-0.9 28.6-2.9 42.9-4.1 14.4-0.9 28.7-1.6 47.4-2.7z m-78.8 110.3c-1.9-1.7-3.9-3.4-5.8-5.1-64.5 43-129.2 85.6-193 129.5-6.7 4.6-8.4 16.4-12.4 24.9 2.1 1.2 4.1 2.4 6.2 3.6 63.6-42.8 127.4-85.3 190.5-128.8 7.1-4.9 9.8-15.9 14.5-24.1z m-229 234.1l5.1 3.6c65-43.7 130.3-87.1 194.7-131.6 6.6-4.5 8.3-16.1 12.2-24.4-70.3 40-135.7 83.1-200.3 127.4-6.5 4.4-7.9 16.4-11.7 25zM402 509.1c-59.5-9.2-113.9-17.2-168-26.4-8.6-1.5-16.8-7.6-24.3-12.8-38.2-26.5-76.4-53.2-114-80.6-6.9-5-14.7-12.9-16.2-20.6-17.7-88.5-34.2-177.4-52-270.7 50 4.2 97.4 8.3 147.2 12.5 5.5 23.1 9.2 46.4 17.1 68.3 4.6 13 13.4 26.9 24.4 34.8 45.5 32.4 92.6 62.4 138.7 93.9 6.5 4.4 14.6 11.1 15.8 17.9 11 59.5 20.5 119.3 31.3 183.7z m-89.3-146.8l7.6-7.3c-7-8.9-12.4-20.2-21.4-26.4-54.8-37.8-110.4-74.4-165.8-111.3-7.2-4.8-14.8-8.9-22.2-13.4-0.2 11.6 1.4 22.6 7.6 26.9 64.4 44.5 129.4 87.8 194.2 131.5z m18 84.1c2.2-1.9 4.4-3.7 6.5-5.6-6.5-9.4-11.6-20.3-19.8-27.7-10.5-9.6-23.4-16.4-35.4-24.3-51-34-102.1-67.9-153.2-101.8-2.1 1.7-4.2 3.5-6.3 5.2 6.6 9.2 11.8 20.2 20.2 27.4 13.5 11.4 29.1 20.2 43.8 30 48.1 32.3 96.1 64.5 144.2 96.8zM269.2 890.5c-47.7-40.6-90.1-76.5-132.1-112.8-3.3-2.9-5.7-8.5-6-13-7.9-107-15.4-214.1-23.5-328.8 32.3 23.6 59.8 43.3 86.7 63.8 3.2 2.4 4.6 9.4 4 13.9-3.5 26.8 10.1 43.4 32.4 53.8 32.6 15.3 40.7 40 39.4 75.2-2.9 80.2-0.9 160.6-0.9 247.9zM876.1 436.2C868 549.9 860.4 657 852.4 764.1c-0.4 5.2-3.5 11.5-7.4 15-41.4 35.9-83.3 71.3-128.4 109.7-1-10.9-2.1-17.9-2.1-24.9-0.1-82.1 0.5-164.2-0.5-246.3-0.2-17.5 5.1-28.5 19.9-36.8 10.3-5.8 19-14.2 29.4-19.9 15.7-8.7 21.5-20.7 22.4-38.8 0.5-10.6 7.5-23.6 15.7-30.6 21.7-18.6 45.8-34.3 74.7-55.3zM413 348.7c21.5 14.4 43.7 28 64.4 43.6 10.7 8.1 18.2 8.2 28.8 0.3 20.8-15.4 42.6-29.4 66.3-45.6-8.6 68-19.7 131.9-23.8 196.3-4 64-0.9 128.5-0.9 194.9h-112c-1.5-129.6 9.3-260-30-386.9 2.4-0.8 4.8-1.7 7.2-2.6zM380.2 981.2c13.7-38.5 26.2-74.9 40.1-110.7 1.9-5 11.2-9.9 17.2-10.1 36.3-0.9 72.7-0.9 109 0.1 6 0.2 15 5.2 17.1 10.3 14.6 35.6 27.7 71.7 42.4 110.4H380.2z" p-id="3189" fill="currentColor"></path></svg>